<?xml version="1.0" encoding="UTF-8"?>
<svg width="600" height="310" viewBox="0 0 600 310" role="img" aria-label="图 02 · 先加炭，再谈灵魂" xmlns="http://www.w3.org/2000/svg"><line stroke="#1C1E21" fill="none" stroke-linecap="round" stroke-linejoin="round" x1="64" y1="240" x2="380" y2="240" stroke-width="1.4" opacity=".35"/><rect stroke="#1C1E21" fill="none" stroke-linecap="round" stroke-linejoin="round" x="210" y="120" width="140" height="120" rx="8" stroke-width="2.4"/><path stroke="#1C1E21" fill="none" stroke-linecap="round" stroke-linejoin="round" stroke-width="2" d="M252,240 V198 A28,28 0 0 1 308,198 V240"/><path fill="#1C1E21" d="M262,230 q5,-8 12,-4 q7,4 3,10 q-8,4 -13,-1 q-3,-3 -2,-5 Z"/><path fill="#1C1E21" d="M282,232 q6,-7 12,-2 q5,5 0,9 q-8,3 -12,-2 q-2,-3 0,-5 Z"/><path stroke="#DE4A0C" fill="none" stroke-linecap="round" stroke-linejoin="round" stroke-width="2" d="M278,212 C270,198 282,194 278,182 C290,194 294,204 286,212"/><path stroke="#1C1E21" fill="none" stroke-linecap="round" stroke-linejoin="round" stroke-width="1.8" d="M322,120 V88 M338,120 V88"/><circle stroke="#1C1E21" fill="none" stroke-dasharray="2.5 5" stroke-linecap="round" stroke-linejoin="round" cx="330" cy="72" r="7" stroke-width="1.4"/><path stroke="#1C1E21" fill="none" stroke-linecap="round" stroke-linejoin="round" stroke-width="1.6" d="M264,112 A16,16 0 0 1 296,112"/><line stroke="#DE4A0C" fill="none" stroke-linecap="round" stroke-linejoin="round" x1="280" y1="112" x2="291" y2="100" stroke-width="1.8"/><circle stroke="#1C1E21" fill="none" stroke-linecap="round" stroke-linejoin="round" cx="120" cy="155" r="8.2" stroke-width="2.0"/><path stroke="#1C1E21" fill="none" stroke-linecap="round" stroke-linejoin="round" stroke-width="2.0" d="M120,163 L120,207 M120,175 L110,186 M120,175 L134,180 M120,207 L112,240 M120,207 L129,240"/><line stroke="#1C1E21" fill="none" stroke-linecap="round" stroke-linejoin="round" x1="134" y1="180" x2="200" y2="214" stroke-width="2"/><path stroke="#1C1E21" fill="none" stroke-linecap="round" stroke-linejoin="round" stroke-width="1.6" d="M196,210 L214,222 L200,229 Z"/><circle fill="#1C1E21" cx="205" cy="216" r="3.6"/><rect stroke="#1C1E21" fill="none" stroke-linecap="round" stroke-linejoin="round" x="524" y="26" width="46" height="64" rx="5" stroke-width="1.8"/><text font-family="monospace" font-size="10.5" fill="#6C6E73" x="531" y="42" style="font-size:12px">二</text><rect fill="#DE4A0C" x="531" y="47" width="9" height="1.8"/></svg>