<?xml version="1.0" encoding="UTF-8"?>
<svg width="600" height="300" viewBox="0 0 600 300" role="img" aria-label="图 04 · 打出去，世界才能定价" xmlns="http://www.w3.org/2000/svg"><path stroke="#1C1E21" fill="none" stroke-linecap="round" stroke-linejoin="round" stroke-width="2.0" d="M74.6,142.6 L136.1,125.0 L161.4,213.4 L99.9,231.0 Z"/><line stroke="#DE4A0C" fill="none" stroke-linecap="round" stroke-linejoin="round" x1="84.7" y1="149.0" x2="93.4" y2="146.6" stroke-width="2"/><path stroke="#1C1E21" fill="none" stroke-linecap="round" stroke-linejoin="round" stroke-width="2.0" d="M114.9,124.3 L178.7,119.9 L185.1,211.7 L121.3,216.1 Z"/><line stroke="#DE4A0C" fill="none" stroke-linecap="round" stroke-linejoin="round" x1="123.5" y1="132.8" x2="132.5" y2="132.1" stroke-width="2"/><path stroke="#1C1E21" fill="none" stroke-linecap="round" stroke-linejoin="round" stroke-width="2.0" d="M157.6,123.6 L220.8,133.6 L206.4,224.4 L143.2,214.4 Z"/><line stroke="#DE4A0C" fill="none" stroke-linecap="round" stroke-linejoin="round" x1="164.1" y1="133.7" x2="173.0" y2="135.1" stroke-width="2"/><line stroke="#1C1E21" fill="none" stroke-dasharray="2.5 5" stroke-linecap="round" stroke-linejoin="round" x1="258" y1="172" x2="300" y2="150" stroke-width="1.3" opacity=".55"/><line stroke="#1C1E21" fill="none" stroke-dasharray="2.5 5" stroke-linecap="round" stroke-linejoin="round" x1="252" y1="192" x2="298" y2="168" stroke-width="1.2" opacity=".4"/><path stroke="#DE4A0C" fill="none" stroke-linecap="round" stroke-linejoin="round" stroke-width="2.4" d="M341.5,63.0 L399.9,89.0 L362.5,173.0 L304.1,147.0 Z"/><line stroke="#DE4A0C" fill="none" stroke-linecap="round" stroke-linejoin="round" x1="345.1" y1="74.4" x2="353.3" y2="78.1" stroke-width="2"/><rect stroke="#1C1E21" fill="none" stroke-dasharray="5 7" stroke-linecap="round" stroke-linejoin="round" x="452" y="150" width="72" height="100" rx="7" stroke-width="1.8"/><rect stroke="#1C1E21" fill="none" stroke-linecap="round" stroke-linejoin="round" x="534" y="26" width="46" height="64" rx="5" stroke-width="1.8"/><text font-family="monospace" font-size="10.5" fill="#6C6E73" x="541" y="42" style="font-size:12px">四</text><rect fill="#DE4A0C" x="541" y="47" width="9" height="1.8"/></svg>