<?xml version="1.0" encoding="UTF-8"?>
<svg width="320" height="140" viewBox="0 0 320 140" role="img" aria-label="第一千次，它是你" xmlns="http://www.w3.org/2000/svg"><rect stroke="#1C1E21" fill="none" stroke-dasharray="2.5 5" stroke-linecap="round" stroke-linejoin="round" x="34" y="40" width="44" height="62" rx="5" stroke-width="1.2" opacity=".5"/><path stroke="#1C1E21" fill="none" stroke-dasharray="2.5 5" stroke-linecap="round" stroke-linejoin="round" stroke-width="1.0" opacity=".5" d="M43,58 h26 M43,68 h20 M43,78 h24"/><rect stroke="#1C1E21" fill="none" stroke-dasharray="5 7" stroke-linecap="round" stroke-linejoin="round" x="102" y="40" width="44" height="62" rx="5" stroke-width="1.5" opacity=".75"/><path stroke="#1C1E21" fill="none" stroke-dasharray="5 7" stroke-linecap="round" stroke-linejoin="round" stroke-width="1.2" opacity=".75" d="M111,58 h26 M111,68 h20 M111,78 h24"/><rect stroke="#1C1E21" fill="none" stroke-linecap="round" stroke-linejoin="round" x="170" y="40" width="44" height="62" rx="5" stroke-width="1.9" opacity="1"/><path stroke="#1C1E21" fill="none" stroke-linecap="round" stroke-linejoin="round" stroke-width="1.4" opacity="1" d="M179,58 h26 M179,68 h20 M179,78 h24"/><rect stroke="#DE4A0C" fill="none" stroke-linecap="round" stroke-linejoin="round" x="238" y="40" width="44" height="62" rx="5" stroke-width="2.2"/><path stroke="#1C1E21" fill="none" stroke-linecap="round" stroke-linejoin="round" stroke-width="1.8" d="M247,58 h26 M247,68 h20 M247,78 h24"/><text font-family="monospace" font-size="10.5" fill="#6C6E73" x="56" y="124" text-anchor="middle">×1</text><text font-family="monospace" font-size="10.5" fill="#6C6E73" x="124" y="124" text-anchor="middle">×10</text><text font-family="monospace" font-size="10.5" fill="#6C6E73" x="192" y="124" text-anchor="middle">×100</text><text font-family="monospace" font-size="10.5" fill="#DE4A0C" x="260" y="124" text-anchor="middle">×1000</text></svg>